# xmcd
#
# Track frame offsets: 
#        150
#        10850
#        21612
#        36175
#        51450
#        64387
#        77362
#        89300
#        101475
#        114775
#        127450
#        139950
#        151375
#        165187
#        178237
#        190350
#        200487
#        215575
#
# Disc length: 3055 seconds
#
# Revision: 1
# Processed by: cddbd v1.5.2PL0 Copyright (c) Steve Scherf et al.
# Submitted via: ExactAudioCopy v1.3
#
DISCID=040bed12
DTITLE=香港群星 - 昔日情懷 國、粵語經典金曲
DYEAR=2018
DGENRE=Oldies
TTITLE0=鳴茜 - 情花開
TTITLE1=林美儀 - 勁草嬌花
TTITLE2=麗莎 - 夜送別
TTITLE3=譚炳文. 李香琴 - 分飛燕
TTITLE4=甄秀儀. 鄭君綿 - 香港靚女多
TTITLE5=鄭少秋 - 恨悠悠
TTITLE6=譚炳文. 李香琴 - 妳回來吧
TTITLE7=鳴茜 - 公子多情
TTITLE8=陳寶珠. 呂奇 - 姑娘十八似花嬌
TTITLE9=汪明荃 - 青青河邊草
TTITLE10=崔妙芝 - 荷花開
TTITLE11=鄭少秋 - 悲秋風
TTITLE12=劉鳳屏 - 紅燭淚
TTITLE13=鄭少秋. 汪明荃 - 痴情淚
TTITLE14=譚炳文 - 舊歡如夢
TTITLE15=崔妙芝 - 彩雲追月
TTITLE16=鄭少秋 - 禪院鐘聲
TTITLE17=金鳳 - 一水隔天涯
EXTD=
EXTT0=
EXTT1=
EXTT2=
EXTT3=
EXTT4=
EXTT5=
EXTT6=
EXTT7=
EXTT8=
EXTT9=
EXTT10=
EXTT11=
EXTT12=
EXTT13=
EXTT14=
EXTT15=
EXTT16=
EXTT17=
PLAYORDER=
